<svg width="644" height="163" viewBox="0 0 644 163" fill="none" xmlns="http://www.w3.org/2000/svg">
<path fill-rule="evenodd" clip-rule="evenodd" d="M127.362 37.9176C119.537 21.8322 107.026 10.3109 90.1189 3.62241C82.9368 0.781051 80.8071 0.411161 69.7832 0.093232C57.0009 -0.274685 53.6251 0.286198 41.9687 4.71719C27.9926 10.031 14.4301 23.0349 7.2913 37.9655C1.19273 50.7217 -0.483856 58.6029 0.113096 71.7179C1.43703 100.857 19.0629 125.07 45.6588 134.285C60.2359 139.335 81.8 138.627 93.4248 132.714C100.253 129.242 100.686 129.302 104.147 134.193L107.338 138.703H117.128C123.624 138.703 126.917 138.331 126.917 137.597C126.917 136.988 124.007 132.708 120.45 128.085L113.982 119.679L118.375 114.444C128.134 102.811 133.67 88.3012 134.486 72.2178C135.148 59.1508 133.254 50.0328 127.362 37.9176ZM34.6536 101.474C10.3155 75.3561 21.364 32.8688 55.1214 22.7651C71.1357 17.9712 88.5714 22.5541 100.324 34.6464C118.474 53.3202 118.756 82.3905 100.972 101.474C91.9906 111.114 81.2878 115.708 67.813 115.708C54.3382 115.708 43.6355 111.114 34.6536 101.474ZM313.447 47.6764C307.265 41.7427 302.195 39.2443 293.388 37.7946C286.21 36.6129 284.128 36.6099 277.288 37.7746C254.132 41.7177 239.773 68.1258 245.601 96.0475C248.631 110.557 256.344 121.244 267.55 126.46C272.279 128.66 274.98 129.158 284.118 129.516C300.278 130.149 310.481 126.599 318.548 117.538C322.123 113.521 326.142 105.914 325.364 104.637C325.142 104.272 321.737 103.66 317.796 103.277C313.856 102.894 309.692 102.351 308.543 102.07C306.956 101.682 305.962 102.367 304.405 104.922C298.112 115.258 279.699 116.162 271.099 106.557C267.862 102.942 266.029 98.6078 265.657 93.693L265.32 89.214L325.871 88.6851L326.501 86.1347C326.849 84.732 326.642 79.7321 326.043 75.0242C324.569 63.4258 320.379 54.3299 313.447 47.6764ZM393.871 47.2435C393.871 38.4605 393.752 37.9266 391.655 37.3557C382.556 34.8813 371.135 40.44 366.248 49.7229L364.406 53.2221L364.319 39.0013L357.976 38.3425C354.488 37.9796 349.834 37.9746 347.633 38.3315L343.633 38.9814V128.705H364.235L364.523 99.4616C364.846 66.72 365.125 65.2504 372.013 59.9146C375.107 57.5171 376.5 57.1832 384.681 56.8743L393.871 56.5284V47.2435ZM457.901 47.3405C457.901 38.4565 457.784 37.9266 455.684 37.3557C449.969 35.8011 441.261 37.8806 435.81 42.1007C433.984 43.5134 431.448 46.8186 430.173 49.446L427.856 54.2219L427.286 39.0074L420.675 38.3735C417.04 38.0246 412.625 37.7366 410.864 37.7326L407.662 37.7256V128.705H428.24L428.841 69.0675L431.615 64.8155C435.432 58.9648 440.501 56.7714 450.267 56.7434L457.901 56.7213V47.3405ZM640.316 54.5138C637.598 47.6444 630.531 40.715 624.317 38.8254C609.882 34.4364 596.478 38.3445 589.405 49.0041L585.96 54.1949V39.0143L579.311 38.3775C575.654 38.0266 571.221 37.7366 569.46 37.7326L566.259 37.7256V128.775L586.427 128.205L586.701 100.211C586.852 84.8149 587.197 70.8292 587.467 69.1316C588.141 64.9035 594.097 58.12 598.399 56.6794C603.311 55.0337 612.022 55.9265 615.306 58.4109C616.774 59.5217 618.861 61.9571 619.945 63.8247C621.78 66.986 621.936 69.3255 622.213 97.962L622.513 128.705H643.212L642.893 94.4628C642.586 61.4843 642.491 60.0096 640.316 54.5138ZM172.885 102.211C172.111 100.862 171.577 90.1267 171.245 69.2185L170.753 38.2255L166.813 38.1456C164.645 38.1016 160.102 38.2356 156.716 38.4435L150.559 38.8204V71.1601C150.559 101.039 150.714 104.01 152.598 110.2C156.064 121.59 164.717 128.484 176.78 129.467C188.308 130.406 197.72 126.066 203.971 116.93L207.2 112.209L207.773 128.705H227.414L226.902 38.2255L207.2 38.4815L206.708 67.8468C206.162 100.369 206.138 100.5 199.391 106.512C195.474 110.002 190.938 111.194 184.408 110.446C179.935 109.934 175.493 106.761 172.885 102.211ZM494.807 58.7209C491.691 48.5482 488.455 39.6632 487.616 38.9754C486.777 38.2885 484.514 37.8126 482.586 37.9185C469.471 38.6384 466.766 38.8734 466.766 39.2893C466.766 39.5462 468.728 45.2609 471.124 51.9884C475.933 65.4853 483.083 85.9358 492.409 112.862L498.521 130.509L496.036 136.02C493.044 142.651 490.735 144.113 483.177 144.163L477.423 144.201L475.082 151.683C473.796 155.798 473.07 159.497 473.47 159.903C473.87 160.309 477.213 161.075 480.899 161.604C493.153 163.366 502.649 160.396 509.549 152.645C514.435 147.155 514.696 146.515 530.314 101.635C537.668 80.507 545.608 57.8211 547.96 51.2226L552.237 39.2253L549.584 38.6405C548.126 38.3195 543.196 38.1916 538.629 38.3575L530.325 38.6595L528.688 43.9413C527.788 46.8466 525.073 55.7466 522.655 63.7198C512.47 97.3102 509.705 105.696 509.05 104.973C508.669 104.554 507.619 101.511 506.718 98.2119C505.817 94.9127 504.042 88.8391 502.776 84.715C501.509 80.5909 497.923 68.8936 494.807 58.7209ZM269.522 61.9881C271.138 59.4467 276.37 55.9355 280.356 54.7178C286.444 52.8562 293.063 54.0509 298.68 58.024C301.702 60.1625 306.174 68.7626 306.19 72.4677L306.2 74.7173H286.171C275.154 74.7173 265.884 74.4563 265.57 74.1384C264.863 73.4206 267.598 65.0124 269.522 61.9881Z" fill="white"/>
<path fill-rule="evenodd" clip-rule="evenodd" d="M127.362 37.9176C119.537 21.8322 107.026 10.3109 90.1189 3.62241C82.9368 0.781051 80.8071 0.411161 69.7832 0.093232C57.0009 -0.274685 53.6251 0.286198 41.9687 4.71719C27.9926 10.031 14.4301 23.0349 7.2913 37.9655C1.19273 50.7217 -0.483856 58.6029 0.113096 71.7179C1.43703 100.857 19.0629 125.07 45.6588 134.285C60.2359 139.335 81.8 138.627 93.4248 132.714C100.253 129.242 100.686 129.302 104.147 134.193L107.338 138.703H117.128C123.624 138.703 126.917 138.331 126.917 137.597C126.917 136.988 124.007 132.708 120.45 128.085L113.982 119.679L118.375 114.444C128.134 102.811 133.67 88.3012 134.486 72.2178C135.148 59.1508 133.254 50.0328 127.362 37.9176ZM55.1214 22.7651C21.364 32.8688 10.3155 75.3561 34.6536 101.474C43.6355 111.114 54.3382 115.708 67.813 115.708C81.2878 115.708 91.9906 111.114 100.972 101.474C118.756 82.3905 118.474 53.3202 100.324 34.6464C88.5714 22.5541 71.1357 17.9712 55.1214 22.7651Z" fill="white"/>
<path fill-rule="evenodd" clip-rule="evenodd" d="M172.885 102.211C172.111 100.862 171.577 90.1267 171.245 69.2185L170.753 38.2255L166.813 38.1456C164.645 38.1016 160.102 38.2356 156.716 38.4435L150.559 38.8204V71.1601C150.559 101.039 150.714 104.01 152.598 110.2C156.064 121.59 164.717 128.484 176.78 129.467C188.308 130.406 197.72 126.066 203.971 116.93L207.2 112.209L207.773 128.705H227.414L226.902 38.2255L207.2 38.4815L206.708 67.8468C206.162 100.369 206.138 100.5 199.391 106.512C195.474 110.002 190.938 111.194 184.408 110.446C179.935 109.934 175.493 106.761 172.885 102.211Z" fill="white"/>
<path fill-rule="evenodd" clip-rule="evenodd" d="M313.447 47.6764C307.265 41.7427 302.195 39.2443 293.388 37.7946C286.21 36.6129 284.128 36.6099 277.288 37.7746C254.132 41.7177 239.773 68.1258 245.601 96.0475C248.631 110.557 256.344 121.244 267.55 126.46C272.279 128.66 274.98 129.158 284.118 129.516C300.278 130.149 310.481 126.599 318.548 117.538C322.123 113.521 326.142 105.914 325.364 104.637C325.142 104.272 321.737 103.66 317.796 103.277C313.856 102.894 309.692 102.351 308.543 102.07C306.956 101.682 305.962 102.367 304.405 104.922C298.112 115.258 279.699 116.162 271.099 106.557C267.862 102.942 266.029 98.6078 265.657 93.693L265.32 89.214L325.871 88.6851L326.501 86.1347C326.849 84.732 326.642 79.7321 326.043 75.0242C324.569 63.4258 320.379 54.3299 313.447 47.6764ZM280.356 54.7178C276.37 55.9355 271.138 59.4467 269.522 61.9881C267.598 65.0124 264.863 73.4206 265.57 74.1384C265.884 74.4563 275.154 74.7173 286.171 74.7173H306.2L306.19 72.4677C306.174 68.7626 301.702 60.1625 298.68 58.024C293.063 54.0509 286.444 52.8562 280.356 54.7178Z" fill="white"/>
<path fill-rule="evenodd" clip-rule="evenodd" d="M393.871 47.2435C393.871 38.4605 393.752 37.9266 391.655 37.3557C382.556 34.8813 371.135 40.44 366.248 49.7229L364.406 53.2221L364.319 39.0013L357.976 38.3425C354.488 37.9796 349.834 37.9746 347.633 38.3315L343.633 38.9814V128.705H364.235L364.523 99.4616C364.846 66.72 365.125 65.2504 372.013 59.9146C375.107 57.5171 376.5 57.1832 384.681 56.8743L393.871 56.5284V47.2435Z" fill="white"/>
<path fill-rule="evenodd" clip-rule="evenodd" d="M457.901 47.3405C457.901 38.4565 457.784 37.9266 455.684 37.3557C449.969 35.8011 441.261 37.8806 435.81 42.1007C433.984 43.5134 431.448 46.8186 430.173 49.446L427.856 54.2219L427.286 39.0074L420.675 38.3735C417.04 38.0246 412.625 37.7366 410.864 37.7326L407.662 37.7256V128.705H428.24L428.841 69.0675L431.615 64.8155C435.432 58.9648 440.501 56.7714 450.267 56.7434L457.901 56.7213V47.3405Z" fill="white"/>
<path fill-rule="evenodd" clip-rule="evenodd" d="M494.807 58.7209C491.691 48.5482 488.455 39.6632 487.616 38.9754C486.777 38.2885 484.514 37.8126 482.586 37.9185C469.471 38.6384 466.766 38.8734 466.766 39.2893C466.766 39.5462 468.728 45.2609 471.124 51.9884C475.933 65.4853 483.083 85.9358 492.409 112.862L498.521 130.509L496.036 136.02C493.044 142.651 490.735 144.113 483.177 144.163L477.423 144.201L475.082 151.683C473.796 155.798 473.07 159.497 473.47 159.903C473.87 160.309 477.213 161.075 480.899 161.604C493.153 163.366 502.649 160.396 509.549 152.645C514.435 147.155 514.696 146.515 530.314 101.635C537.668 80.507 545.608 57.8211 547.96 51.2226L552.237 39.2253L549.584 38.6405C548.126 38.3195 543.196 38.1916 538.629 38.3575L530.325 38.6595L528.688 43.9413C527.788 46.8466 525.073 55.7466 522.655 63.7198C512.47 97.3102 509.705 105.696 509.05 104.973C508.669 104.554 507.619 101.511 506.718 98.2119C505.817 94.9127 504.042 88.8391 502.776 84.715C501.509 80.5909 497.923 68.8936 494.807 58.7209Z" fill="white"/>
<path fill-rule="evenodd" clip-rule="evenodd" d="M640.316 54.5138C637.598 47.6444 630.531 40.715 624.317 38.8254C609.882 34.4364 596.478 38.3445 589.405 49.0041L585.96 54.1949V39.0143L579.311 38.3775C575.654 38.0266 571.221 37.7366 569.46 37.7326L566.259 37.7256V128.775L586.427 128.205L586.701 100.211C586.852 84.8149 587.197 70.8292 587.467 69.1316C588.141 64.9035 594.097 58.12 598.399 56.6794C603.311 55.0337 612.022 55.9265 615.306 58.4109C616.774 59.5217 618.861 61.9571 619.945 63.8247C621.78 66.986 621.936 69.3255 622.213 97.962L622.513 128.705H643.212L642.893 94.4628C642.586 61.4843 642.491 60.0096 640.316 54.5138Z" fill="white"/>
<path fill-rule="evenodd" clip-rule="evenodd" d="M127.362 37.9176C119.537 21.8322 107.026 10.3109 90.1189 3.62241C82.9368 0.781051 80.8071 0.411161 69.7832 0.093232C57.0009 -0.274685 53.6251 0.286198 41.9687 4.71719C27.9926 10.031 14.4301 23.0349 7.2913 37.9655C1.19273 50.7217 -0.483856 58.6029 0.113096 71.7179C1.43703 100.857 19.0629 125.07 45.6588 134.285C60.2359 139.335 81.8 138.627 93.4248 132.714C100.253 129.242 100.686 129.302 104.147 134.193L107.338 138.703H117.128C123.624 138.703 126.917 138.331 126.917 137.597C126.917 136.988 124.007 132.708 120.45 128.085L113.982 119.679L118.375 114.444C128.134 102.811 133.67 88.3012 134.486 72.2178C135.148 59.1508 133.254 50.0328 127.362 37.9176ZM34.6536 101.474C10.3155 75.3561 21.364 32.8688 55.1214 22.7651C71.1357 17.9712 88.5714 22.5541 100.324 34.6464C118.474 53.3202 118.756 82.3905 100.972 101.474C91.9906 111.114 81.2878 115.708 67.813 115.708C54.3382 115.708 43.6355 111.114 34.6536 101.474ZM313.447 47.6764C307.265 41.7427 302.195 39.2443 293.388 37.7946C286.21 36.6129 284.128 36.6099 277.288 37.7746C254.132 41.7177 239.773 68.1258 245.601 96.0475C248.631 110.557 256.344 121.244 267.55 126.46C272.279 128.66 274.98 129.158 284.118 129.516C300.278 130.149 310.481 126.599 318.548 117.538C322.123 113.521 326.142 105.914 325.364 104.637C325.142 104.272 321.737 103.66 317.796 103.277C313.856 102.894 309.692 102.351 308.543 102.07C306.956 101.682 305.962 102.367 304.405 104.922C298.112 115.258 279.699 116.162 271.099 106.557C267.862 102.942 266.029 98.6078 265.657 93.693L265.32 89.214L325.871 88.6851L326.501 86.1347C326.849 84.732 326.642 79.7321 326.043 75.0242C324.569 63.4258 320.379 54.3299 313.447 47.6764ZM393.871 47.2435C393.871 38.4605 393.752 37.9266 391.655 37.3557C382.556 34.8813 371.135 40.44 366.248 49.7229L364.406 53.2221L364.319 39.0013L357.976 38.3425C354.488 37.9796 349.834 37.9746 347.633 38.3315L343.633 38.9814V128.705H364.235L364.523 99.4616C364.846 66.72 365.125 65.2504 372.013 59.9146C375.107 57.5171 376.5 57.1832 384.681 56.8743L393.871 56.5284V47.2435ZM457.901 47.3405C457.901 38.4565 457.784 37.9266 455.684 37.3557C449.969 35.8011 441.261 37.8806 435.81 42.1007C433.984 43.5134 431.448 46.8186 430.173 49.446L427.856 54.2219L427.286 39.0074L420.675 38.3735C417.04 38.0246 412.625 37.7366 410.864 37.7326L407.662 37.7256V128.705H428.24L428.841 69.0675L431.615 64.8155C435.432 58.9648 440.501 56.7714 450.267 56.7434L457.901 56.7213V47.3405ZM640.316 54.5138C637.598 47.6444 630.531 40.715 624.317 38.8254C609.882 34.4364 596.478 38.3445 589.405 49.0041L585.96 54.1949V39.0143L579.311 38.3775C575.654 38.0266 571.221 37.7366 569.46 37.7326L566.259 37.7256V128.775L586.427 128.205L586.701 100.211C586.852 84.8149 587.197 70.8292 587.467 69.1316C588.141 64.9035 594.097 58.12 598.399 56.6794C603.311 55.0337 612.022 55.9265 615.306 58.4109C616.774 59.5217 618.861 61.9571 619.945 63.8247C621.78 66.986 621.936 69.3255 622.213 97.962L622.513 128.705H643.212L642.893 94.4628C642.586 61.4843 642.491 60.0096 640.316 54.5138ZM172.885 102.211C172.111 100.862 171.577 90.1267 171.245 69.2185L170.753 38.2255L166.813 38.1456C164.645 38.1016 160.102 38.2356 156.716 38.4435L150.559 38.8204V71.1601C150.559 101.039 150.714 104.01 152.598 110.2C156.064 121.59 164.717 128.484 176.78 129.467C188.308 130.406 197.72 126.066 203.971 116.93L207.2 112.209L207.773 128.705H227.414L226.902 38.2255L207.2 38.4815L206.708 67.8468C206.162 100.369 206.138 100.5 199.391 106.512C195.474 110.002 190.938 111.194 184.408 110.446C179.935 109.934 175.493 106.761 172.885 102.211ZM494.807 58.7209C491.691 48.5482 488.455 39.6632 487.616 38.9754C486.777 38.2885 484.514 37.8126 482.586 37.9185C469.471 38.6384 466.766 38.8734 466.766 39.2893C466.766 39.5462 468.728 45.2609 471.124 51.9884C475.933 65.4853 483.083 85.9358 492.409 112.862L498.521 130.509L496.036 136.02C493.044 142.651 490.735 144.113 483.177 144.163L477.423 144.201L475.082 151.683C473.796 155.798 473.07 159.497 473.47 159.903C473.87 160.309 477.213 161.075 480.899 161.604C493.153 163.366 502.649 160.396 509.549 152.645C514.435 147.155 514.696 146.515 530.314 101.635C537.668 80.507 545.608 57.8211 547.96 51.2226L552.237 39.2253L549.584 38.6405C548.126 38.3195 543.196 38.1916 538.629 38.3575L530.325 38.6595L528.688 43.9413C527.788 46.8466 525.073 55.7466 522.655 63.7198C512.47 97.3102 509.705 105.696 509.05 104.973C508.669 104.554 507.619 101.511 506.718 98.2119C505.817 94.9127 504.042 88.8391 502.776 84.715C501.509 80.5909 497.923 68.8936 494.807 58.7209ZM269.522 61.9881C271.138 59.4467 276.37 55.9355 280.356 54.7178C286.444 52.8562 293.063 54.0509 298.68 58.024C301.702 60.1625 306.174 68.7626 306.19 72.4677L306.2 74.7173H286.171C275.154 74.7173 265.884 74.4563 265.57 74.1384C264.863 73.4206 267.598 65.0124 269.522 61.9881Z" stroke="white"/>
<path fill-rule="evenodd" clip-rule="evenodd" d="M127.362 37.9176C119.537 21.8322 107.026 10.3109 90.1189 3.62241C82.9368 0.781051 80.8071 0.411161 69.7832 0.093232C57.0009 -0.274685 53.6251 0.286198 41.9687 4.71719C27.9926 10.031 14.4301 23.0349 7.2913 37.9655C1.19273 50.7217 -0.483856 58.6029 0.113096 71.7179C1.43703 100.857 19.0629 125.07 45.6588 134.285C60.2359 139.335 81.8 138.627 93.4248 132.714C100.253 129.242 100.686 129.302 104.147 134.193L107.338 138.703H117.128C123.624 138.703 126.917 138.331 126.917 137.597C126.917 136.988 124.007 132.708 120.45 128.085L113.982 119.679L118.375 114.444C128.134 102.811 133.67 88.3012 134.486 72.2178C135.148 59.1508 133.254 50.0328 127.362 37.9176ZM55.1214 22.7651C21.364 32.8688 10.3155 75.3561 34.6536 101.474C43.6355 111.114 54.3382 115.708 67.813 115.708C81.2878 115.708 91.9906 111.114 100.972 101.474C118.756 82.3905 118.474 53.3202 100.324 34.6464C88.5714 22.5541 71.1357 17.9712 55.1214 22.7651Z" stroke="white"/>
<path fill-rule="evenodd" clip-rule="evenodd" d="M172.885 102.211C172.111 100.862 171.577 90.1267 171.245 69.2185L170.753 38.2255L166.813 38.1456C164.645 38.1016 160.102 38.2356 156.716 38.4435L150.559 38.8204V71.1601C150.559 101.039 150.714 104.01 152.598 110.2C156.064 121.59 164.717 128.484 176.78 129.467C188.308 130.406 197.72 126.066 203.971 116.93L207.2 112.209L207.773 128.705H227.414L226.902 38.2255L207.2 38.4815L206.708 67.8468C206.162 100.369 206.138 100.5 199.391 106.512C195.474 110.002 190.938 111.194 184.408 110.446C179.935 109.934 175.493 106.761 172.885 102.211Z" stroke="white"/>
<path fill-rule="evenodd" clip-rule="evenodd" d="M313.447 47.6764C307.265 41.7427 302.195 39.2443 293.388 37.7946C286.21 36.6129 284.128 36.6099 277.288 37.7746C254.132 41.7177 239.773 68.1258 245.601 96.0475C248.631 110.557 256.344 121.244 267.55 126.46C272.279 128.66 274.98 129.158 284.118 129.516C300.278 130.149 310.481 126.599 318.548 117.538C322.123 113.521 326.142 105.914 325.364 104.637C325.142 104.272 321.737 103.66 317.796 103.277C313.856 102.894 309.692 102.351 308.543 102.07C306.956 101.682 305.962 102.367 304.405 104.922C298.112 115.258 279.699 116.162 271.099 106.557C267.862 102.942 266.029 98.6078 265.657 93.693L265.32 89.214L325.871 88.6851L326.501 86.1347C326.849 84.732 326.642 79.7321 326.043 75.0242C324.569 63.4258 320.379 54.3299 313.447 47.6764ZM280.356 54.7178C276.37 55.9355 271.138 59.4467 269.522 61.9881C267.598 65.0124 264.863 73.4206 265.57 74.1384C265.884 74.4563 275.154 74.7173 286.171 74.7173H306.2L306.19 72.4677C306.174 68.7626 301.702 60.1625 298.68 58.024C293.063 54.0509 286.444 52.8562 280.356 54.7178Z" stroke="white"/>
<path fill-rule="evenodd" clip-rule="evenodd" d="M393.871 47.2435C393.871 38.4605 393.752 37.9266 391.655 37.3557C382.556 34.8813 371.135 40.44 366.248 49.7229L364.406 53.2221L364.319 39.0013L357.976 38.3425C354.488 37.9796 349.834 37.9746 347.633 38.3315L343.633 38.9814V128.705H364.235L364.523 99.4616C364.846 66.72 365.125 65.2504 372.013 59.9146C375.107 57.5171 376.5 57.1832 384.681 56.8743L393.871 56.5284V47.2435Z" stroke="white"/>
<path fill-rule="evenodd" clip-rule="evenodd" d="M457.901 47.3405C457.901 38.4565 457.784 37.9266 455.684 37.3557C449.969 35.8011 441.261 37.8806 435.81 42.1007C433.984 43.5134 431.448 46.8186 430.173 49.446L427.856 54.2219L427.286 39.0074L420.675 38.3735C417.04 38.0246 412.625 37.7366 410.864 37.7326L407.662 37.7256V128.705H428.24L428.841 69.0675L431.615 64.8155C435.432 58.9648 440.501 56.7714 450.267 56.7434L457.901 56.7213V47.3405Z" stroke="white"/>
<path fill-rule="evenodd" clip-rule="evenodd" d="M494.807 58.7209C491.691 48.5482 488.455 39.6632 487.616 38.9754C486.777 38.2885 484.514 37.8126 482.586 37.9185C469.471 38.6384 466.766 38.8734 466.766 39.2893C466.766 39.5462 468.728 45.2609 471.124 51.9884C475.933 65.4853 483.083 85.9358 492.409 112.862L498.521 130.509L496.036 136.02C493.044 142.651 490.735 144.113 483.177 144.163L477.423 144.201L475.082 151.683C473.796 155.798 473.07 159.497 473.47 159.903C473.87 160.309 477.213 161.075 480.899 161.604C493.153 163.366 502.649 160.396 509.549 152.645C514.435 147.155 514.696 146.515 530.314 101.635C537.668 80.507 545.608 57.8211 547.96 51.2226L552.237 39.2253L549.584 38.6405C548.126 38.3195 543.196 38.1916 538.629 38.3575L530.325 38.6595L528.688 43.9413C527.788 46.8466 525.073 55.7466 522.655 63.7198C512.47 97.3102 509.705 105.696 509.05 104.973C508.669 104.554 507.619 101.511 506.718 98.2119C505.817 94.9127 504.042 88.8391 502.776 84.715C501.509 80.5909 497.923 68.8936 494.807 58.7209Z" stroke="white"/>
<path fill-rule="evenodd" clip-rule="evenodd" d="M640.316 54.5138C637.598 47.6444 630.531 40.715 624.317 38.8254C609.882 34.4364 596.478 38.3445 589.405 49.0041L585.96 54.1949V39.0143L579.311 38.3775C575.654 38.0266 571.221 37.7366 569.46 37.7326L566.259 37.7256V128.775L586.427 128.205L586.701 100.211C586.852 84.8149 587.197 70.8292 587.467 69.1316C588.141 64.9035 594.097 58.12 598.399 56.6794C603.311 55.0337 612.022 55.9265 615.306 58.4109C616.774 59.5217 618.861 61.9571 619.945 63.8247C621.78 66.986 621.936 69.3255 622.213 97.962L622.513 128.705H643.212L642.893 94.4628C642.586 61.4843 642.491 60.0096 640.316 54.5138Z" stroke="white"/>
</svg>
